<?xml version="1.0" standalone="no"?>
<!DOCTYPE svg PUBLIC "-//W3C//DTD SVG 20010904//EN"
 "http://www.w3.org/TR/2001/REC-SVG-20010904/DTD/svg10.dtd">
<svg version="1.0" xmlns="http://www.w3.org/2000/svg"
 width="300.000000pt" height="300.000000pt" viewBox="0 0 300.000000 300.000000"
 preserveAspectRatio="xMidYMid meet"><g transform="translate(0.000000,300.000000) scale(0.100000,-0.100000)"
fill="#000000" stroke="none">
<path d="M0 1500 l0 -1500 1500 0 1500 0 -1 523 c0 287 -4 511 -8 497 -16 -50
-41 -89 -86 -128 -64 -56 -145 -82 -275 -89 -180 -10 -328 43 -400 140 -36 49
-60 123 -60 184 l0 43 49 0 48 0 6 -49 c13 -106 75 -177 183 -211 80 -24 198
-27 271 -5 129 38 201 150 162 252 -28 74 -98 111 -297 159 -204 48 -263 69
-312 111 -56 48 -80 102 -79 178 0 145 86 251 234 290 147 38 329 3 426 -83
47 -41 89 -120 96 -182 l6 -50 -51 0 -50 0 -7 40 c-11 66 -61 130 -129 165
-55 28 -67 30 -165 30 -90 0 -112 -3 -146 -22 -100 -53 -142 -159 -99 -249 26
-53 81 -78 284 -128 107 -26 210 -58 247 -76 67 -33 119 -86 139 -141 10 -27
13 150 13 884 l1 917 -1500 0 -1500 0 0 -1500z m2525 615 c33 -41 62 -74 65
-74 3 0 33 34 68 75 59 69 66 74 103 74 21 0 39 -2 39 -6 0 -3 -37 -50 -81
-105 l-82 -99 -52 0 -51 0 -75 93 c-101 124 -99 117 -42 116 47 0 49 -1 108
-74z m-1767 -402 c38 -98 120 -308 182 -466 71 -180 116 -283 121 -275 7 12
291 733 341 866 l19 52 75 0 74 0 0 -535 0 -535 -50 0 -50 0 -2 460 -3 459
-180 -460 -180 -460 -50 3 -50 3 -180 457 -180 457 -3 -460 -2 -459 -50 0 -50
0 0 535 0 535 74 0 74 0 70 -177z m1206 -434 c41 -46 33 -99 -23 -152 -23 -21
-41 -40 -41 -43 0 -12 99 -124 103 -117 3 5 8 23 12 41 5 22 12 32 26 32 23 0
24 -12 5 -73 l-14 -47 39 -48 c37 -44 38 -47 18 -50 -14 -3 -33 7 -52 26 l-29
30 -43 -30 c-81 -57 -192 -46 -235 24 -42 68 -17 154 56 198 22 13 41 25 43
27 2 1 -3 11 -11 20 -25 28 -48 80 -48 106 0 29 34 75 64 88 40 17 99 3 130
-32z"/>
<path d="M1842 1273 c-38 -15 -32 -82 12 -137 15 -18 16 -18 41 -2 53 35 65
122 20 140 -19 7 -54 7 -73 -1z"/>
<path d="M1796 1027 c-48 -46 -59 -84 -36 -128 34 -62 147 -64 202 -2 17 18
15 22 -43 93 -34 41 -65 76 -69 78 -5 2 -29 -17 -54 -41z"/>
</g>
</svg>
