<?xml version="1.0" standalone="no"?>
<!DOCTYPE svg PUBLIC "-//W3C//DTD SVG 20010904//EN"
 "http://www.w3.org/TR/2001/REC-SVG-20010904/DTD/svg10.dtd">
<svg version="1.0" xmlns="http://www.w3.org/2000/svg" width="300.000000pt" height="300.000000pt" fill="#555" viewBox="0 0 300.000000 300.000000" preserveAspectRatio="xMidYMid meet">
    <g transform="translate(0.000000,300.000000) scale(0.100000,-0.100000)" stroke="none">
        <path d="M0 1500 l0 -1500 1500 0 1500 0 0 281 0 281 -41 -36 c-53 -45 -114 -65 -216 -73 -146 -11 -268 28 -335 107 -35 40 -51 80 -63 158 l-7 42 46 0 c41 0 46 -2 46 -22 0 -128 105 -210 270 -212 76 -1 92 2 145 29 73 37 105 79 105 142 0 100 -49 135 -260 188 -174 43 -238 71 -274 117 -64 85 -46 234 38 305 63 53 112 68 226 68 92 0 112 -3 160 -26 69 -33 115 -71 140 -118 19 -36 19 -29 20 867 l0 902 -1500 0 -1500 0 0 -1500z m2636 53 c26 -32 51 -62 54 -66 4 -4 31 22 61 58 46 55 59 65 87 65 17 0 32 -3 32 -6 0 -3 -30 -44 -67 -90 -65 -82 -67 -84 -109 -84 -41 0 -45 3 -105 78 -34 42 -67 83 -72 90 -7 9 0 12 31 12 36 0 44 -5 88 -57z m-1540 -558 c79 -198 149 -371 155 -385 10 -23 26 12 164 360 l152 385 67 3 66 3 0 -446 0 -445 -45 0 -45 0 -2 382 -3 382 -150 -379 -150 -380 -44 0 -43 0 -152 379 -151 379 -3 -381 -2 -382 -45 0 -45 0 0 445 0 446 66 -3 66 -3 144 -360z m984 70 c95 -49 93 -174 -5 -237 -19 -13 -33 -28 -30 -35 8 -23 119 -152 126 -147 4 2 11 25 15 49 5 40 9 45 31 45 24 0 25 -2 19 -42 -4 -24 -12 -57 -18 -75 -11 -30 -9 -35 36 -90 l48 -58 -28 -3 c-24 -3 -36 4 -65 37 -35 42 -35 42 -54 21 -10 -11 -42 -32 -72 -46 -45 -23 -62 -26 -109 -21 -73 7 -114 33 -141 87 -26 51 -29 99 -9 139 16 29 81 92 114 110 20 11 20 12 -14 62 -55 83 -45 154 30 200 37 23 87 24 126 4z"/>
        <path d="M1983 1025 c-35 -15 -49 -48 -39 -88 7 -29 47 -89 63 -94 20 -7 82 57 89 92 9 48 -3 75 -42 91 -39 16 -31 17 -71 -1z"/>
        <path d="M1933 741 c-77 -56 -92 -140 -35 -194 60 -58 141 -54 208 8 l36 34 -52 63 c-29 35 -63 75 -76 91 -12 15 -27 27 -32 27 -5 0 -27 -13 -49 -29z"/>
        <path d="M2598 1297 c-66 -19 -97 -43 -119 -90 -33 -74 -19 -145 36 -181 14 -9 102 -37 195 -61 179 -47 219 -62 263 -103 l27 -26 0 132 0 131 -37 3 c-35 3 -38 6 -46 44 -10 53 -65 117 -118 138 -56 23 -145 28 -201 13z"/>
    </g>
</svg>
